<svg id="visual" viewBox="0 0 1920 1400" width="1920" height="1400" xmlns="http://www.w3.org/2000/svg" xmlns:xlink="http://www.w3.org/1999/xlink" version="1.1"><rect x="0" y="0" width="1920" height="1400" fill="#001e35"></rect><defs><linearGradient id="grad1_0" x1="27.1%" y1="100%" x2="100%" y2="0%"><stop offset="22.571428571428573%" stop-color="#001e35" stop-opacity="1"></stop><stop offset="77.42857142857143%" stop-color="#001e35" stop-opacity="1"></stop></linearGradient></defs><defs><linearGradient id="grad2_0" x1="0%" y1="100%" x2="72.9%" y2="0%"><stop offset="22.571428571428573%" stop-color="#001e35" stop-opacity="1"></stop><stop offset="77.42857142857143%" stop-color="#001e35" stop-opacity="1"></stop></linearGradient></defs><g transform="translate(1920, 1400)"><path d="M-1069.3 0C-1055.4 -139.7 -1041.4 -279.4 -987.9 -409.2C-934.4 -539 -841.2 -659 -728.3 -728.3C-615.4 -797.7 -482.9 -816.4 -358.2 -864.8C-233.5 -913.1 -116.8 -991.2 0 -1069.3L0 0Z" fill="#1ee52a"></path></g><g transform="translate(0, 0)"><path d="M1069.3 0C1071.9 156 1074.5 312.1 987.9 409.2C901.3 506.4 725.5 544.6 611.6 611.6C497.8 678.7 446 774.4 354.4 855.5C262.8 936.6 131.4 1002.9 0 1069.3L0 0Z" fill="#1ee52a"></path></g></svg>